<svg xmlns="http://www.w3.org/2000/svg" width="900" height="620" viewBox="0 0 900 620">
  <defs>
    <linearGradient id="sky" x1="0" x2="1" y1="0" y2="1">
      <stop offset="0" stop-color="#dff7f3"/>
      <stop offset="1" stop-color="#fff3d3"/>
    </linearGradient>
    <linearGradient id="teal" x1="0" x2="1">
      <stop offset="0" stop-color="#087377"/>
      <stop offset="1" stop-color="#14aaa0"/>
    </linearGradient>
    <filter id="shadow" x="-10%" y="-10%" width="120%" height="120%">
      <feDropShadow dx="0" dy="24" stdDeviation="22" flood-color="#043f3f" flood-opacity=".24"/>
    </filter>
  </defs>
  <rect x="30" y="40" width="820" height="520" rx="44" fill="url(#sky)" filter="url(#shadow)"/>
  <circle cx="720" cy="120" r="110" fill="#14aaa0" opacity=".18"/>
  <circle cx="120" cy="480" r="130" fill="#f8ad2d" opacity=".18"/>
  <rect x="130" y="250" width="640" height="210" fill="#f8f6ea"/>
  <rect x="160" y="190" width="580" height="270" rx="12" fill="#ffffff"/>
  <rect x="185" y="215" width="130" height="245" fill="#087377"/>
  <rect x="590" y="215" width="120" height="245" fill="#14aaa0"/>
  <rect x="330" y="155" width="245" height="305" fill="#f8faf7"/>
  <path d="M452 205 L535 330 L452 420 L370 330 Z" fill="#ddf7f3" stroke="#087377" stroke-width="12"/>
  <path d="M452 245 L500 330 L452 385 L405 330 Z" fill="#ffffff" stroke="#14aaa0" stroke-width="8"/>
  <rect x="220" y="270" width="60" height="70" rx="12" fill="#ddf7f3"/>
  <rect x="220" y="360" width="60" height="70" rx="12" fill="#ddf7f3"/>
  <rect x="620" y="270" width="60" height="70" rx="12" fill="#ddf7f3"/>
  <rect x="620" y="360" width="60" height="70" rx="12" fill="#ddf7f3"/>
  <rect x="260" y="470" width="380" height="32" rx="16" fill="#087377"/>
  <text x="450" y="118" text-anchor="middle" font-family="Arial, sans-serif" font-size="54" font-weight="800" fill="#087377">ATB</text>
  <text x="450" y="145" text-anchor="middle" font-family="Arial, sans-serif" font-size="22" font-weight="700" fill="#043f3f">Akademi Teknologi dan Bisnis Baiturrahman</text>
  <rect x="92" y="482" width="715" height="34" rx="17" fill="#043f3f" opacity=".1"/>
  <path d="M60 522 C210 492 320 510 450 535 C570 558 680 540 840 510" stroke="#0c8e8a" stroke-width="18" fill="none" opacity=".45"/>
</svg>